<svg width="1440" height="637" viewBox="0 0 1440 637" fill="none" xmlns="http://www.w3.org/2000/svg">
<path fill-rule="evenodd" clip-rule="evenodd" d="M984.739 355.793C987.544 355.793 993.227 354.498 998.508 352.656C1006.61 349.829 1007.5 349.547 1027.5 348.978C1027.36 348.097 1027.28 347.138 1027.22 346.007C1027.08 343.247 1027.16 342.01 1027.59 340.608C1028.44 337.786 1028.36 337.474 1026.77 337.228C1024.04 336.808 1022.01 334.614 1021.54 331.596C1021.42 330.793 1020.76 329.043 1020.07 327.706C1019.38 326.368 1018.56 324.513 1018.24 323.582C1017.93 322.651 1017 321.057 1016.18 320.04C1014.44 317.88 1014.27 316.57 1015.34 313.512C1015.69 312.493 1016.18 310.16 1016.41 308.328C1016.82 305.161 1016.8 304.852 1016.05 302.007C1015.2 298.77 1015 293.271 1014.5 260.275C1014.3 247.503 1014.77 227.699 1015.38 222.994C1015.55 221.657 1015.93 218.593 1016.22 216.186C1017.18 208.283 1019.3 200.384 1021.92 194.952C1022.35 194.061 1023.03 192.393 1023.43 191.247C1024.71 187.533 1026.56 184.611 1029.46 181.702C1030.37 180.788 1032.17 178.8 1033.46 177.284C1036.74 173.409 1039.23 171.52 1044.72 168.741C1046.36 167.912 1047.88 167.235 1048.12 167.235C1048.35 167.235 1052.61 165.722 1057.58 163.873C1067.48 160.194 1070.95 159.123 1076.15 158.152C1078.04 157.799 1082.19 156.865 1085.37 156.076C1091.43 154.576 1094.77 154.155 1103.75 153.763C1106.42 153.647 1108.99 153.405 1109.46 153.225C1110.29 152.909 1113.4 152.564 1120.4 152.016C1122.25 151.871 1125.28 151.45 1127.13 151.081C1128.99 150.711 1133.45 150.03 1137.05 149.568C1140.65 149.105 1144.42 148.524 1145.44 148.277C1146.45 148.029 1150.31 147.227 1154.01 146.495C1157.7 145.762 1161.41 144.938 1162.24 144.663C1163.07 144.388 1164.66 144.113 1165.77 144.051C1168.43 143.901 1171.51 143.417 1177.03 142.277C1183 141.047 1184.71 140.742 1188.08 140.317C1191.27 139.915 1194 138.868 1195.89 137.327C1198.58 135.135 1199.44 134.553 1201.23 133.683C1205.51 131.61 1211.04 126.362 1214.22 121.363C1216.39 117.963 1218.3 116.019 1222.83 112.61C1224.25 111.54 1225.41 110.578 1225.42 110.471C1225.43 110.365 1224.26 109.951 1222.83 109.552C1216.09 107.673 1212.53 104.28 1213.14 100.337C1213.48 98.1319 1215.64 94.1671 1218.56 90.403C1220.01 88.5308 1222.32 85.3214 1223.7 83.2709C1226.27 79.4504 1227.66 77.6972 1230.66 74.4398C1232.73 72.1997 1235.41 67.5856 1236.82 63.8199C1237.39 62.3043 1238.86 58.3671 1240.08 55.0708C1242.54 48.4546 1243.3 46.8515 1245.47 43.6751C1247.56 40.633 1250.18 38.1394 1254.92 34.6991C1257.18 33.0578 1259.7 31.0449 1260.51 30.2257C1262.73 27.9875 1264.82 24.061 1266.96 18.11C1269.27 11.6597 1270.56 8.96508 1272.79 5.90673C1274.83 3.10254 1276.99 1.33379 1279.32 0.557374C1281.66 -0.221964 1283.14 -0.18825 1284.94 0.685101C1286.15 1.2722 1286.85 2.0149 1288.54 4.49426C1289.69 6.18812 1291.41 9.03284 1292.36 10.8158C1293.31 12.5989 1294.92 15.2977 1295.94 16.8132C1301.96 25.7474 1302.62 28.0096 1304.57 46.4767C1305.17 52.2407 1305.61 54.972 1306.27 57.0127C1308.54 64.1246 1310.06 68.2885 1312.17 73.2212C1317.18 84.9667 1318.28 88.9386 1319.21 98.5873C1319.59 102.555 1320.11 107.625 1320.38 109.854C1321.67 120.867 1322.06 133.59 1321.26 139.031C1320.66 143.148 1317.57 159.654 1316.98 161.886C1316.71 162.955 1315.58 166.693 1314.49 170.193C1310.94 181.563 1309.67 187.647 1309.12 195.925C1308.85 200.047 1307.48 207.047 1306.27 210.513C1304.74 214.88 1301.49 219.466 1293.5 228.51C1284.82 238.324 1282.35 242.109 1280.89 247.785C1279.07 254.909 1278.73 257.852 1277.88 273.861C1277.43 282.333 1277.96 288.214 1280.02 297.394C1280.3 298.642 1280.67 301.341 1280.84 303.392C1281.14 306.873 1282.51 313.093 1283.3 314.513C1283.71 315.26 1284.12 315.221 1290.47 313.814C1303.4 310.95 1319.04 308.922 1328.28 308.91L1333.82 308.903L1335.51 310C1337.07 311.019 1337.43 311.11 1340.55 311.273C1342.98 311.399 1344.85 311.728 1347.27 312.46C1350.28 313.366 1351.22 313.491 1356.18 313.654C1360.85 313.807 1362.36 313.73 1365.76 313.167C1367.98 312.8 1372.52 312.194 1375.84 311.821C1382.57 311.067 1382.74 311.038 1385.59 310.189C1386.7 309.858 1388.82 309.421 1390.3 309.216C1391.78 309.012 1393.94 308.633 1395.11 308.374C1397.27 307.898 1398.4 307.804 1415.84 306.663C1431.67 305.628 1433.32 305.597 1440 306V637H0V500.357H6.304C12.195 500.357 12.83 500.584 16 503.823C19.156 507.048 19.822 507.289 25.573 507.289C29.601 507.289 35.131 508.317 41.448 510.243C56.287 514.766 66.445 516.551 72.911 515.769C75.985 515.398 82.1 514.693 86.5 514.202C90.9 513.711 97.22 512.649 100.545 511.843C103.87 511.036 114.445 509.846 124.045 509.199L141.5 508.02L149.576 500.357H169.682C186.736 500.357 192.271 499.955 206.144 497.709C222.232 495.104 223.303 495.059 271.5 494.986L320.5 494.911L326.5 492.057C333.233 488.854 340.345 488.086 377.5 486.552C393.328 485.898 399.065 485.273 405 483.556C410.418 481.99 417.059 481.148 428.924 480.526L445.348 479.664L451.949 473.178C457.405 467.818 459.124 466.692 461.855 466.692C465.47 466.692 474.769 470.112 485.169 475.268C492.885 479.093 493.048 479.114 497.742 476.908L501.286 475.243L506.972 481.544L517.236 481.461C522.881 481.415 530.2 481.026 533.5 480.598C537.755 480.045 541.211 480.239 545.383 481.267C549.113 482.186 554.613 482.593 560.409 482.378C569.116 482.055 570.058 481.792 580.222 476.824C589.45 472.314 592.322 471.411 601.457 470.141C614.054 468.39 619.355 466.114 626.876 459.225C631.016 455.433 633.581 453.893 636.595 453.39C639.783 452.858 641.888 451.497 646.095 447.244C652.577 440.692 656.451 438.573 664.993 436.91C671.35 435.671 671.579 435.512 682.127 424.934C692.491 414.54 692.951 414.213 697.2 414.213C701.091 414.213 702.085 413.703 706.042 409.679L710.5 405.145L717.576 405.482C724.368 405.805 725.017 406.062 733.786 411.929C742.568 417.804 750.044 420.478 752.866 418.751C753.901 418.117 767.963 416.868 792.377 415.239C805.137 414.388 806.828 414.041 813.377 410.924C822.174 406.737 841.243 393.089 849.666 384.951L855.953 378.878L866.226 377.149C881.327 374.608 884.005 373.762 886.587 370.724C888.657 368.287 889.81 367.904 896.712 367.357C900.995 367.016 906.975 365.762 910 364.57C914.925 362.63 918.115 362.33 940.5 361.704C964.064 361.044 965.915 360.855 972.731 358.399C976.758 356.948 982.079 355.793 984.739 355.793ZM1137.62 253.825C1142.38 255.791 1149.54 258.023 1154.53 259.097C1157.98 259.838 1167.93 261.303 1175.69 262.213C1186.59 263.491 1199.77 262.727 1215.69 259.895C1221.91 258.787 1224.02 258.545 1227.62 258.521C1231.48 258.496 1232.18 258.578 1233.67 259.227L1235.35 259.961L1235.4 264.414C1235.5 273.053 1237.13 286.189 1239.53 297.57C1241.35 306.24 1241.57 308.282 1241.57 316.729V324.085L1240.31 325.039C1237.25 327.357 1227.96 332.676 1224.56 334.053C1220.17 335.836 1217.44 336.446 1213.84 336.45C1210.36 336.454 1197.73 335.038 1193.25 334.142C1189.19 333.33 1188.16 333.491 1185.66 335.329C1184.81 335.958 1183.24 336.795 1182.17 337.188C1180.73 337.716 1179.52 338.55 1177.54 340.378C1175.26 342.471 1174.12 343.207 1170.14 345.149C1166.79 346.786 1165 347.872 1163.92 348.934C1163.09 349.753 1161.73 350.81 1160.9 351.283C1160.07 351.755 1157.73 353.219 1155.71 354.536C1150.04 358.231 1149.89 358.287 1146.3 358.056C1137.64 357.499 1131.84 357.474 1130.14 357.986C1128.51 358.48 1128.42 358.473 1126.75 357.686C1124.47 356.618 1117.36 349.571 1114.8 345.86C1112.59 342.64 1109.92 337.597 1108.69 334.29C1107.3 330.554 1106.68 326.733 1106.7 322.032C1106.73 315.095 1107.07 314.239 1117.02 295.773C1124.97 281.02 1127.8 272.182 1129.66 256.223C1130.02 253.192 1130.31 250.673 1130.31 250.625C1130.31 250.578 1131.11 250.927 1132.08 251.401C1133.05 251.876 1135.54 252.967 1137.62 253.825ZM1081.14 352.469C1084.2 355.598 1084.79 355.793 1091.18 355.793C1092.69 355.793 1094.22 355.884 1095.82 356.073C1093.89 353.807 1090.95 350.491 1088.04 347.308C1083.41 342.265 1080.91 338.669 1078.92 334.189C1077.75 331.559 1077.4 330.38 1077.39 329.002C1077.37 325.948 1078.54 319.938 1079.76 316.845C1080.86 314.034 1081.56 311.111 1082.76 304.202C1083.07 302.419 1083.27 300.381 1083.21 299.672L1083.09 298.384L1082.44 299.348C1082.09 299.878 1080.94 301.187 1079.88 302.257C1076.73 305.463 1073.59 309.459 1072.16 312.094C1071.42 313.459 1069.75 315.743 1068.46 317.17C1063.9 322.204 1059.11 329.78 1059.07 332.034C1059.06 332.364 1058.37 335.646 1057.52 339.328C1056.4 344.261 1056.09 345.777 1056.01 348.428C1062.37 348.394 1067.44 348.449 1069.69 348.599C1077.35 349.11 1078.1 349.361 1081.14 352.469Z" fill="black"/>
</svg>
